# xmcd
#
# Track frame offsets:
# 150
# 22616
# 43142
# 60445
# 83982
# 103677
# 124924
# 147886
# 167358
# 186892
# 204077
# 235375
# 256786
# 274660
#
# Disc length: 4040 seconds
#
#
# Revision: 7
# Processed by: cddbd v1.5PL3 Copyright (c) Steve Scherf et al.
# Submitted via: FreeRIP 2.51 
#
DISCID=b20fc60e
DTITLE=MARIAH CAREY - Butterfly
DYEAR=1997
DGENRE=Blues
TTITLE0=Honey
TTITLE1=Butterfly
TTITLE2=My All
TTITLE3=The Roof
TTITLE4=Fourth Of July
TTITLE5=Breakdown
TTITLE6=Babydoll
TTITLE7=Close My Eyes
TTITLE8=Whenever You Call
TTITLE9=Fly Away (Butterfly Reprise)
TTITLE10=The Beautiful Ones
TTITLE11=Outside
TTITLE12=Honey (So So Def Radio Mix)
TTITLE13=Honey (Def Club Mix)
EXTD=Trading full mp3 albums\nmagus3042@yahoo.com
EXTT0=
EXTT1=
EXTT2=
EXTT3=
EXTT4=
EXTT5=
EXTT6=
EXTT7=
EXTT8=
EXTT9=
EXTT10=
EXTT11=
EXTT12=Featuring Da Brat and JD
EXTT13=
PLAYORDER=
